<svg xmlns="http://www.w3.org/2000/svg" viewBox="0 0 80 40"><defs><style>.a{fill:#f4c02f;}</style></defs><title>Deae Banner</title><path d="M48,8a12,12,0,1,1-8,21c.13-.11.25-.23.37-.35a11.5,11.5,0,1,0,0-17.2c-.12-.12-.24-.24-.37-.35A11.93,11.93,0,0,1,48,8Z"/><path class="a" d="M48,8.5a11.5,11.5,0,1,1-7.63,20.1,12.63,12.63,0,0,0,1.32-1.51A9.39,9.39,0,0,0,48,29.5a9.5,9.5,0,0,0,0-19,9.39,9.39,0,0,0-6.31,2.41,12.63,12.63,0,0,0-1.32-1.51A11.46,11.46,0,0,1,48,8.5Z"/><path d="M48,10.5a9.5,9.5,0,0,1,0,19,9.39,9.39,0,0,1-6.31-2.41c.1-.13.19-.27.28-.41a9,9,0,1,0,0-13.36c-.09-.14-.18-.28-.28-.41A9.39,9.39,0,0,1,48,10.5Z"/><path d="M42,13.32a12,12,0,0,1,0,13.36c-.13-.12-.25-.23-.37-.36a11.46,11.46,0,0,0,0-12.64C41.72,13.55,41.84,13.44,42,13.32Z"/><path d="M41.69,12.91c.1.13.19.27.28.41-.13.12-.25.23-.37.36-.09-.14-.18-.28-.29-.42A3.09,3.09,0,0,1,41.69,12.91Z"/><path d="M42,26.68c-.09.14-.18.28-.28.41a3.09,3.09,0,0,1-.38-.35c.11-.14.2-.28.29-.42C41.72,26.45,41.84,26.56,42,26.68Z"/><path class="a" d="M41.6,13.68a11.46,11.46,0,0,1,0,12.64,8.92,8.92,0,0,1-1.31-1.68,9.5,9.5,0,0,0,0-9.28A8.92,8.92,0,0,1,41.6,13.68Z"/><path class="a" d="M41.69,12.91a3.09,3.09,0,0,0-.38.35A11.09,11.09,0,0,0,40,11.75c.12-.12.24-.24.37-.35A12.63,12.63,0,0,1,41.69,12.91Z"/><path d="M41.31,26.74a3.09,3.09,0,0,0,.38.35,12.63,12.63,0,0,1-1.32,1.51c-.13-.11-.25-.23-.37-.35A11.09,11.09,0,0,0,41.31,26.74Z"/><path d="M41.31,13.26c.11.14.2.28.29.42a8.92,8.92,0,0,0-1.31,1.68c-.09-.17-.19-.33-.29-.49A9.31,9.31,0,0,1,41.31,13.26Z"/><path class="a" d="M41.6,26.32c-.09.14-.18.28-.29.42A9.31,9.31,0,0,1,40,25.13c.1-.16.2-.32.29-.49A8.92,8.92,0,0,0,41.6,26.32Z"/><path class="a" d="M41.31,13.26A9.31,9.31,0,0,0,40,14.87a9.31,9.31,0,0,0-1.31-1.61A11.09,11.09,0,0,1,40,11.75,11.09,11.09,0,0,1,41.31,13.26Z"/><path class="a" d="M40,25.13a9.31,9.31,0,0,0,1.31,1.61A11.09,11.09,0,0,1,40,28.25a11.09,11.09,0,0,1-1.31-1.51A9.31,9.31,0,0,0,40,25.13Z"/><path d="M40.29,15.36a9.5,9.5,0,0,1,0,9.28,5.45,5.45,0,0,1-.29-.53,8.95,8.95,0,0,0,0-8.22A5.45,5.45,0,0,1,40.29,15.36Z"/><path d="M40.37,11.4c-.13.11-.25.23-.37.35-.12-.12-.24-.24-.37-.35.12-.12.24-.24.37-.35C40.13,11.16,40.25,11.28,40.37,11.4Z"/><path d="M40,28.25c.12.12.24.24.37.35-.12.12-.24.24-.37.35-.13-.11-.25-.23-.37-.35C39.76,28.49,39.88,28.37,40,28.25Z"/><path d="M40,14.87c.1.16.2.32.29.49a5.45,5.45,0,0,0-.29.53,5.45,5.45,0,0,0-.29-.53C39.8,15.19,39.9,15,40,14.87Z"/><path d="M40.29,24.64c-.09.17-.19.33-.29.49-.1-.16-.2-.32-.29-.49a5.45,5.45,0,0,0,.29-.53A5.45,5.45,0,0,0,40.29,24.64Z"/><path d="M40,11.75a11.09,11.09,0,0,0-1.31,1.51,3.09,3.09,0,0,0-.38-.35,12.63,12.63,0,0,1,1.32-1.51C39.76,11.51,39.88,11.63,40,11.75Z"/><path class="a" d="M38.69,26.74A11.09,11.09,0,0,0,40,28.25c-.12.12-.24.24-.37.35a12.63,12.63,0,0,1-1.32-1.51A3.09,3.09,0,0,0,38.69,26.74Z"/><path d="M40,11.05c-.13.11-.25.23-.37.35a11.5,11.5,0,1,0,0,17.2c.12.12.24.24.37.35a12,12,0,1,1,0-17.9Z"/><path d="M39.71,15.36a5.45,5.45,0,0,1,.29.53,8.95,8.95,0,0,0,0,8.22,5.45,5.45,0,0,1-.29.53,9.5,9.5,0,0,1,0-9.28Z"/><path class="a" d="M40,14.87c-.1.16-.2.32-.29.49a8.92,8.92,0,0,0-1.31-1.68c.09-.14.18-.28.29-.42A9.31,9.31,0,0,1,40,14.87Z"/><path d="M39.71,24.64c.09.17.19.33.29.49a9.31,9.31,0,0,1-1.31,1.61c-.11-.14-.2-.28-.29-.42A8.92,8.92,0,0,0,39.71,24.64Z"/><path class="a" d="M39.63,11.4a12.63,12.63,0,0,0-1.32,1.51A9.39,9.39,0,0,0,32,10.5a9.5,9.5,0,0,0,0,19,9.39,9.39,0,0,0,6.31-2.41,12.63,12.63,0,0,0,1.32,1.51,11.5,11.5,0,1,1,0-17.2Z"/><path class="a" d="M38.4,13.68a8.92,8.92,0,0,1,1.31,1.68,9.5,9.5,0,0,0,0,9.28,8.92,8.92,0,0,1-1.31,1.68,11.46,11.46,0,0,1,0-12.64Z"/><path d="M38.69,13.26c-.11.14-.2.28-.29.42-.12-.13-.24-.24-.37-.36.09-.14.18-.28.28-.41A3.09,3.09,0,0,1,38.69,13.26Z"/><path d="M38.4,26.32c.09.14.18.28.29.42a3.09,3.09,0,0,1-.38.35c-.1-.13-.19-.27-.28-.41C38.16,26.56,38.28,26.45,38.4,26.32Z"/><path d="M38,13.32c.13.12.25.23.37.36a11.46,11.46,0,0,0,0,12.64c-.12.13-.24.24-.37.36a12,12,0,0,1,0-13.36Z"/><path d="M38.31,12.91c-.1.13-.19.27-.28.41a9,9,0,1,0,0,13.36c.09.14.18.28.28.41A9.39,9.39,0,0,1,32,29.5a9.5,9.5,0,0,1,0-19A9.39,9.39,0,0,1,38.31,12.91Z"/></svg>