<svg xmlns="http://www.w3.org/2000/svg" viewBox="0 0 80 40"><defs><style>.a{fill:#f4c02f;}</style></defs><title>Regimen Banner</title><rect width="80" height="40"/><path class="a" d="M39.63,28.6a12.63,12.63,0,0,1-1.32-1.51,3.09,3.09,0,0,0,.38-.35A11.09,11.09,0,0,0,40,28.25C39.88,28.37,39.76,28.49,39.63,28.6Z"/><path class="a" d="M41.5,20a9.43,9.43,0,0,0-1.21-4.64,8.92,8.92,0,0,1,1.31-1.68,11.46,11.46,0,0,1,0,12.64,8.92,8.92,0,0,1-1.31-1.68A9.43,9.43,0,0,0,41.5,20Z"/><path class="a" d="M41.31,13.26A11.09,11.09,0,0,0,40,11.75c.12-.12.24-.24.37-.35a12.63,12.63,0,0,1,1.32,1.51A3.09,3.09,0,0,0,41.31,13.26Z"/><path class="a" d="M40,14.87a9.31,9.31,0,0,0-1.31-1.61A11.09,11.09,0,0,1,40,11.75a11.09,11.09,0,0,1,1.31,1.51A9.31,9.31,0,0,0,40,14.87Z"/><path class="a" d="M38.5,20a9.43,9.43,0,0,0,1.21,4.64,8.92,8.92,0,0,1-1.31,1.68,11.46,11.46,0,0,1,0-12.64,8.92,8.92,0,0,1,1.31,1.68A9.43,9.43,0,0,0,38.5,20Z"/><path class="a" d="M41.31,26.74A9.31,9.31,0,0,1,40,25.13c.1-.16.2-.32.29-.49a8.92,8.92,0,0,0,1.31,1.68C41.51,26.46,41.42,26.6,41.31,26.74Z"/><path class="a" d="M40,28.25a11.09,11.09,0,0,1-1.31-1.51A9.31,9.31,0,0,0,40,25.13a9.31,9.31,0,0,0,1.31,1.61A11.09,11.09,0,0,1,40,28.25Z"/><path class="a" d="M38.69,13.26A9.31,9.31,0,0,1,40,14.87c-.1.16-.2.32-.29.49a8.92,8.92,0,0,0-1.31-1.68C38.49,13.54,38.58,13.4,38.69,13.26Z"/><path class="a" d="M20.5,20a11.5,11.5,0,0,1,19.13-8.6,12.63,12.63,0,0,0-1.32,1.51,9.5,9.5,0,1,0,0,14.18,12.63,12.63,0,0,0,1.32,1.51A11.5,11.5,0,0,1,20.5,20Z"/><path class="a" d="M48,31.5a11.46,11.46,0,0,1-7.63-2.9,12.63,12.63,0,0,0,1.32-1.51,9.5,9.5,0,1,0,0-14.18,12.63,12.63,0,0,0-1.32-1.51A11.5,11.5,0,1,1,48,31.5Z"/></svg>